<?xml version="1.0" encoding="UTF-8"?>
<svg xmlns="http://www.w3.org/2000/svg" viewBox="0 0 512 512" width="512" height="512" role="img" aria-label="FocusQuest logo">
  <defs>
    <!-- Soft lavender gradient fill for the pin -->
    <radialGradient id="g1" cx="50%" cy="35%" r="70%">
      <stop offset="0%" stop-color="#D9B8FF"/>
      <stop offset="100%" stop-color="#C7A0FF"/>
    </radialGradient>
    <!-- Subtle inner shadow for depth on dark UIs -->
    <linearGradient id="edge" x1="0" y1="0" x2="0" y2="1">
      <stop offset="0%" stop-color="#FFFFFF" stop-opacity="0.35"/>
      <stop offset="100%" stop-color="#000000" stop-opacity="0.15"/>
    </linearGradient>
    <filter id="softGlow" x="-20%" y="-20%" width="140%" height="140%">
      <feGaussianBlur in="SourceAlpha" stdDeviation="6" result="blur"/>
      <feOffset dy="2" result="offset"/>
      <feComponentTransfer>
        <feFuncA type="linear" slope="0.25"/>
      </feComponentTransfer>
      <feMerge>
        <feMergeNode in="offset"/>
        <feMergeNode in="SourceGraphic"/>
      </feMerge>
    </filter>
  </defs>

  <!-- Background is transparent; logo designed to sit on dark purple UI -->

  <!-- Map pin silhouette -->
  <path
    d="M256 40c-86.1 0-156 69.9-156 156 0 45.8 24 86.9 49.9 120.9 26.2 34.5 55.9 64.6 83.2 100.9 7.8 10.3 27.7 10.3 35.5 0 27.3-36.3 57-66.4 83.2-100.9C388 282.9 412 241.8 412 196 412 109.9 342.1 40 256 40z"
    fill="url(#g1)"
    filter="url(#softGlow)"
  />
  <!-- Pin edge highlight -->
  <path
    d="M256 48c-81.6 0-148 66.4-148 148 0 43.2 22.5 82.4 47.4 114.9 26 34.1 55.2 64 80.6 97.4 5.6 7.4 17.4 7.4 23 0 25.3-33.4 54.6-63.3 80.6-97.4C377.5 278.4 400 239.2 400 196c0-81.6-66.4-148-148-148z"
    fill="none" stroke="url(#edge)" stroke-width="6"
  />

  <!-- Checkmark (productivity) -->
  <path
    d="M192 214l40 40 88-88"
    fill="none"
    stroke="#2C2A35"
    stroke-width="30"
    stroke-linecap="round"
    stroke-linejoin="round"
  />

  <!-- Compass hint ring to suggest 'quest' without clutter -->
  <circle cx="256" cy="196" r="96" fill="none" stroke="#2C2A35" stroke-width="10" opacity="0.25"/>

  <!-- North tick -->
  <path d="M256 80 v-18" stroke="#2C2A35" stroke-width="8" stroke-linecap="round" opacity="0.35"/>
</svg>
